<svg version="1.1" viewBox="0 0 120 37" xmlns="http://www.w3.org/2000/svg">
 <path d="m15.228 24.159c-1.5865 1.9305-2.5941 4.2471-3.8573 6.3781-0.9549 1.6038-1.5038 2.9106-2.1655 4.3436-0.07519 0.1633-0.1579 0.3118-0.25565 0.4603 4.3536-0.8761 6.3086-3.8164 6.3086-9.1624 0-0.4901 0.0301-1.5741-0.0301-2.0196z" fill="#f1c61a"/>
 <path d="m12.815 20.016c-1.5339-1.5147-3.4663-2.1458-6.0829-2.1458-0.65416 0-2.2557 0.0445-4.7972 0.1336v8.9248c0.06767-0.0074 0.14286-0.0074 0.21805-0.0074 0.60905 0.0074 1.1805 0.1114 1.6993 0.3044 0.48122 0.1857 0.90229 0.4158 1.2858 0.6906v-7.1652c0.6316-0.0519 1.1128-0.0816 1.4587-0.0816 2.1279 0 3.6318 0.6756 4.4889 2.027 0.7068-0.9281 1.1129-1.3068 1.4963-1.6484 0.2331-0.2004 0.4512-0.3935 0.6692-0.5791-0.1503-0.1559-0.2857-0.3044-0.4361-0.4529z" fill="#fff"/>
 <path d="m3.7995 35.601c-0.48122-1.0618-1.1053-1.9157-1.8722-2.7844v2.9403l1.97 0.052c-0.03759-0.0668-0.06767-0.1411-0.09775-0.2079z" fill="#f1c61a"/>
 <g fill="#fff">
  <path d="m27.974 31.777v-2.7769c0-2.5171-0.4662-4.2249-1.3986-5.1233-0.9399-0.8984-2.4061-1.3513-4.4137-1.3513-1.4512 0-2.7069 0.2524-3.7596 0.7573l0.6617 2.3537c0.782-0.3935 1.7444-0.5865 2.9024-0.5865 1.955 0 2.9324 0.7647 2.9324 2.3017-0.4962-0.1262-0.9173-0.1856-1.2782-0.1856-2.0978 0-3.722 0.4232-4.8649 1.2697-1.1429 0.8538-1.7143 2.027-1.7143 3.5268 0 1.2846 0.406 2.2795 1.2105 2.9775 0.8121 0.6979 1.9174 1.0469 3.3385 1.0469 0.7519 0 1.4738-0.1411 2.1655-0.4307 0.6918-0.2821 1.1805-0.6534 1.4587-1.1063 0.1203 0.3787 0.361 0.7351 0.7068 1.0544 0.3534 0.3267 0.7519 0.49 1.1956 0.49 0.3985 0 0.7594-0.052 1.0602-0.1559 0.3158-0.0965 0.6015-0.3713 0.8496-0.8019-0.6992-0.4455-1.0526-1.5296-1.0526-3.2596zm-3.0528-0.9281c0 1.8265-0.9173 2.7324-2.767 2.7324-1.361 0-2.0528-0.5792-2.0528-1.7449 0-1.5667 1.2106-2.3537 3.6393-2.3537 0.2556 0 0.6542 0.052 1.1805 0.1559z"/>
  <path d="m39.823 35.749v-7.9967c0-0.8019-0.2557-1.4405-0.7594-1.9305-0.5113-0.4827-1.173-0.7277-1.9926-0.7277-0.5038 0-1.0151 0.1337-1.5339 0.4084-0.5188 0.2673-0.8873 0.5791-1.1053 0.9281v9.3184h-3.128v-17.805l3.128-0.7277v6.3781c0.797-0.7128 1.8873-1.0692 3.2783-1.0692 1.6467 0 2.925 0.4529 3.8348 1.3513s1.3685 2.1904 1.3685 3.8759v7.9967z"/>
  <path d="m56.275 31.777v-2.7769c0-2.5171-0.4662-4.2249-1.3986-5.1233s-2.3986-1.3513-4.4062-1.3513c-1.4587 0-2.7144 0.2524-3.7746 0.7573l0.6617 2.3537c0.782-0.3935 1.7444-0.5865 2.9024-0.5865 1.955 0 2.9324 0.7647 2.9324 2.3017-0.4887-0.1262-0.9173-0.1856-1.2782-0.1856-2.1054 0-3.722 0.4232-4.8649 1.2697-1.1429 0.8538-1.7143 2.027-1.7143 3.5268 0 1.2846 0.406 2.2795 1.2181 2.9775 0.812 0.6979 1.9173 1.0469 3.3309 1.0469 0.7519 0 1.4738-0.1411 2.1655-0.4307 0.6918-0.2821 1.1805-0.6534 1.4587-1.1063 0.1203 0.3787 0.361 0.7351 0.7068 1.0544 0.3534 0.3267 0.752 0.49 1.1956 0.49 0.3985 0 0.7594-0.052 1.0677-0.1559 0.3083-0.0965 0.594-0.3713 0.8421-0.8019-0.6917-0.4455-1.0451-1.5296-1.0451-3.2596zm-3.0528-0.9281c0 1.8265-0.9248 2.7324-2.767 2.7324-1.3685 0-2.0527-0.5792-2.0527-1.7449 0-1.5667 1.2105-2.3537 3.6317-2.3537 0.2632 0 0.6617 0.052 1.1805 0.1559v1.2103z"/>
  <path d="m69.75 24.322c-1.1805-1.1954-2.7295-1.7968-4.6544-1.7968-0.9624 0-1.8572 0.245-2.6768 0.7425v-6.0514l-3.0678 0.7277v18.058h1.7294l0.6842-0.9578c0.8798 0.6386 1.9249 0.9578 3.143 0.9578 2.0302 0 3.6393-0.6311 4.8273-1.9008 1.1805-1.2696 1.7745-2.9848 1.7745-5.1603 0.0076-1.8786-0.5789-3.4155-1.7594-4.6184zm-2.3535 8.0636c-0.6166 0.6979-1.6693 1.0395-3.1506 1.0395-0.7669 0-1.376-0.2599-1.8271-0.7871v-6.779c0.4737-0.5049 1.1655-0.7574 2.0753-0.7574 2.549 0 3.8197 1.3143 3.8197 3.9501 0.0075 1.5222-0.3008 2.6359-0.9173 3.3339z"/>
  <path d="m73.396 34.918 1.0978-2.4057c0.9174 0.7128 1.955 1.0692 3.1129 1.0692 1.1956 0 1.7971-0.4232 1.7971-1.2623 0-0.49-0.1804-0.8984-0.5414-1.2102-0.3609-0.3193-1.0602-0.6831-2.0978-1.1138-2.2708-0.9281-3.4062-2.2275-3.4062-3.9055 0-1.1212 0.4362-1.9973 1.3009-2.621s1.9775-0.943 3.3309-0.943c1.3685 0 2.6543 0.3044 3.8573 0.9058l-0.8797 2.3463c-0.6692-0.5643-1.6091-0.8464-2.7971-0.8464-1.0753 0-1.6091 0.4232-1.6091 1.2622 0 0.3341 0.1804 0.6311 0.5263 0.8984 0.3534 0.2673 1.1053 0.6237 2.2633 1.0692 1.1579 0.4455 1.985 0.995 2.4963 1.6335 0.5113 0.6386 0.7595 1.4108 0.7595 2.3166 0 1.2029-0.4512 2.1533-1.361 2.8438-0.9023 0.6905-2.1354 1.0395-3.6919 1.0395-0.8797 0-1.579-0.0742-2.1129-0.2153-0.5413-0.1337-1.2181-0.4232-2.0452-0.8613z"/>
  <path d="m93.57 35.749v-7.9967c0-0.8019-0.2556-1.4405-0.7594-1.9305-0.5113-0.4827-1.173-0.7277-1.9926-0.7277-0.5038 0-1.0226 0.1337-1.5339 0.4084-0.5188 0.2673-0.8873 0.5791-1.1053 0.9281v9.3184h-3.1205v-17.805l3.1205-0.7277v6.3781c0.797-0.7128 1.8873-1.0692 3.2783-1.0692 1.6467 0 2.925 0.4529 3.8348 1.3513s1.3609 2.1904 1.3609 3.8759v7.9967z"/>
  <path d="m99.104 22.77v2.4873h1.6768v10.499h3.105v-12.986z"/>
  <path d="m106.6 22.77v2.4873h1.684v10.499h3.106v-12.986z"/>
  <path d="m115.49 17.944 3.067-0.7276v14.59c0 1.5964 0.482 2.5542 1.444 2.8586-0.474 0.8836-1.286 1.3291-2.429 1.3291-1.39 0-2.082-0.9504-2.082-2.8586v-15.192z"/>
  <path d="m108.69 17.112c-5.045-3.7125-9.6696-6.6974-13.745-8.8655-5.1205-2.673-10.346-4.7223-15.512-6.1033-5.6243-1.4924-11.271-2.2126-16.798-2.1384-4.2182 0.0594-8.4214 0.5643-12.489 1.4998-0.1428 0.03713-0.188 0.1485-0.1729 0.2376 0.0225 0.10395 0.1203 0.19305 0.2782 0.17078 4.3912-0.7128 8.444-1.0321 12.384-0.96525 5.4138 0.11138 10.88 0.99495 16.264 2.6284 4.9627 1.4998 9.9403 3.6531 14.783 6.4078 3.8498 2.2275 8.3312 5.3386 12.963 9.0065l0.052 0.0371 0.015-0.0594c0.181-0.9652 0.948-1.6632 1.97-1.782l0.098-0.0074z"/>
  <path d="m19.883 17.758c-0.2255 0.3416-0.7068 0.698-1.0301 0.995-1.4286 1.2771-2.7745 2.6284-4.0152 4.0689-0.0376 0.0371-0.0677 0.0817-0.0977 0.1188-0.0076 0.0223-0.0226 0.0371-0.0376 0.052-1.0151 1.1954-1.9475 2.5393-2.752 3.8981 0 0 0 0.0074-0.0075 0.0074-0.1053 0.1856-0.2181 0.3712-0.3158 0.5569-0.4286 0.7499-0.8422 1.5147-1.2708 2.2646-0.0225 0.052-0.0376 0.0891-0.0677 0.1262-0.52629 0.9281-1.015 1.8785-1.4662 2.8364-0.30076 0.6162-0.58649 1.2325-0.84966 1.8636-0.24061 0.5569-0.58649 0.943-1.2557 1.0841-0.23309 0.052-0.45114 0.1411-0.69176 0.2153-0.03759 0.0149-0.08271 0.0223-0.1203 0.0297-0.13535 0.0371-0.24061 0.0446-0.3158 0.0074-0.12031-0.0371-0.20302-0.141-0.28573-0.3267-0.25565-0.5049-0.48874-1.0172-0.77447-1.5072-0.64664-1.1138-1.4587-2.0939-2.4738-2.9106-0.49626-0.401-1.0376-0.7574-1.6392-1.0767-0.54138-0.2821-0.5489-0.4306-0.052634-0.787 0.48122-0.3416 1-0.6683 1.6091-0.7574 0.08271-0.0074 0.1579-0.0148 0.24062-0.0148 0.39099-0.0074 0.81958 0.052 1.188 0.1856 0.72936 0.245 1.3008 0.6608 1.8121 1.1509 0.33084 0.3193 0.64664 0.6682 0.94741 1.0246 0.06015 0.0817 0.1203 0.156 0.21805 0.2748 0.1579-0.2748 0.28573-0.5049 0.42107-0.7277 0.39852-0.6979 0.76695-1.4107 1.2106-2.079 0.93989-1.4256 2.2482-2.97 3.5715-4.3585 0.6467-0.6831 1.3008-1.3216 1.9099-1.9007 0.1804-0.1708 0.3609-0.3342 0.5263-0.4901 1.5414-1.4033 2.8122-2.3983 4.6243-3.6679 0.2331-0.1634 0.9775-0.7945 1.2482-0.401 0.0375 0.0743 0.0375 0.1708-0.0076 0.245z"/>
  <path d="m101.98 17.506h-0.015c-1.068-0.0148-1.962 0.5495-2.3308 1.4701-1.2031-0.9949-3.7445-3.1036-6.504-4.9301-2.5039-1.6707-5.1055-3.2225-7.8275-4.5887-5.4137-2.7101-11.211-4.3585-17.294-5.2866-2.4212-0.37125-4.8724-0.594-7.3236-0.58657-7.3613-0.07425-15.098 1.3291-21.896 4.0615-1.6317 0.66082-3.1581 1.2845-4.7371 2.0344-2.1429 1.0023-4.1881 2.079-6.2032 3.2744-2.0979 1.2474-4.098 2.3686-6.1206 3.7273-0.1353 0.0891-0.5263 0.3861-0.8497 0.4678-0.1579 0.0371-0.3007 0.0297-0.3834-0.0742-0.0376-0.0446-0.0452-0.0891-0.0452-0.1411 0-0.0965 0.0602-0.1931 0.1279-0.2822 0-0.0074 0.0075-0.0074 0.0075-0.0074 0.0376-0.052 0.0827-0.0965 0.1278-0.1336 0.6241-0.5198 0.8873-0.6906 1.3384-1.0173 0.97-0.6979 1.9399-1.3959 2.9325-2.0493 1.6391-1.0914 3.3159-2.1309 5.0303-3.1036 2.7374-1.4996 5.7121-2.9568 8.2108-3.9798 6.8424-2.7918 14.865-4.1877 22.422-4.3288 6.9476-0.20047 14.061 1.1063 20.505 3.4898 5.6393 2.079 10.888 4.9153 15.783 8.2417 1.7369 1.1806 3.4212 2.428 5.0452 3.7422z"/>
  <path d="m109.04 18.234c-0.639-0.0074-1.166 0.3787-1.308 0.9727-0.098 0.401 0 0.8242 0.278 1.1509 0.263 0.3118 0.631 0.49 1.015 0.49h0.052c0.707-0.0297 1.226-0.5717 1.241-1.2919 0.015-0.7499-0.526-1.3068-1.278-1.3217z"/>
  <path d="m103.18 19.971c-7e-3 0.7276-0.556 1.2622-1.278 1.2474-0.721-0.0075-1.285-0.5643-1.27-1.292 7e-3 -0.7573 0.586-1.2622 1.308-1.2548 0.722 0.0223 1.248 0.5494 1.24 1.2994z"/>
 </g>
</svg>
